<?xml version="1.0" encoding="UTF-8"?><svg id="Layer_1" xmlns="http://www.w3.org/2000/svg" viewBox="0 0 74.15 53.36"><defs><style>.cls-1{fill:#fff;stroke:#040000;stroke-linejoin:round;}.cls-2{fill:#0a000a;}</style></defs><g transform="rotate(0,0,0)"><path class="cls-1" d="M28.54,37.45c-1.76,6.74,2.56,11.6,8.54,11.6s10.3-4.87,8.54-11.6l-8.49-.87-8.59,.87Z"/><path class="cls-1" d="M32.18,36.62c1.39,2.19-11.29,15.45-14.29,16.22C15.14,53.55-.46,36.93,.55,34.57c.98-2.29,21.08-2.06,26.15-9.93l5.48,11.98Z"/><path class="cls-1" d="M41.97,36.62c-1.39,2.19,11.29,15.45,14.29,16.22,2.75,.7,18.35-15.92,17.34-18.27-.98-2.29-21.08-2.06-26.15-9.93l-5.48,11.98Z"/><path class="cls-1" d="M41.58,35.93v12c0,2.49-2.01,4.5-4.51,4.5s-4.51-2.01-4.51-4.5v-12h9.01Z"/><path class="cls-1" d="M37.08,.5c-7.55,0-13.67,7.6-13.67,16.97s6.12,20.78,13.67,20.78,13.67-11.41,13.67-20.78S44.62,.5,37.08,.5Zm0,7.21c5.92,0,10.72,5.98,10.72,13.36s-4.8,16.36-10.72,16.36-10.72-8.98-10.72-16.36,4.8-13.36,10.72-13.36Z"/><path class="cls-1" d="M37.08,6.35c6.84,0,12.09,6.76,12.09,14.73,0,3.98-1.26,8.26-3.34,11.66-2.08,3.4-5.09,6.07-8.75,6.07s-6.66-2.67-8.75-6.07-3.34-7.67-3.34-11.66c0-7.97,5.24-14.73,12.09-14.73Zm0,2.73c-5,0-9.35,5.21-9.35,12,0,3.39,1.14,7.3,2.94,10.24s4.15,4.76,6.42,4.76,4.62-1.83,6.42-4.76c1.8-2.94,2.94-6.84,2.94-10.24,0-6.79-4.36-12-9.35-12Z"/><path class="cls-1" d="M26.39,20.54c0-.53,.43-.95,.96-.95h19.52c.53,0,.96,.43,.96,.95s-.43,.95-.96,.95H27.35c-.53,0-.96-.43-.96-.95Z"/><path class="cls-1" d="M26.72,24.64c0-.53,.43-.95,.96-.95h18.86c.53,0,.96,.43,.96,.95s-.43,.95-.96,.95H27.68c-.53,0-.96-.43-.96-.95Z"/><path class="cls-1" d="M27.09,16.45c0-.53,.43-.95,.96-.95h18.12c.53,0,.96,.43,.96,.95s-.43,.95-.96,.95H28.05c-.53,0-.96-.43-.96-.95h0Z"/><path class="cls-1" d="M28,28.73c0-.53,.43-.95,.96-.95h16.31c.53,0,.96,.43,.96,.95s-.43,.95-.96,.95H28.95c-.53,0-.96-.43-.96-.95Z"/><path class="cls-1" d="M45.03,12.36c0,.53-.43,.95-.96,.95h-13.94c-.53,0-.96-.43-.96-.95s.43-.95,.96-.95h13.94c.53,0,.96,.43,.96,.95Z"/><path class="cls-1" d="M30.3,32.83c0-.53,.43-.95,.96-.95h11.7c.53,0,.96,.43,.96,.95s-.43,.95-.96,.95h-11.7c-.53,0-.96-.43-.96-.95Z"/><path class="cls-1" d="M37.11,7.76h0c.53,0,.95,.43,.95,.95v27.73c0,.53-.43,.95-.95,.95h0c-.53,0-.95-.43-.95-.95V8.72c0-.53,.43-.95,.95-.95Z"/><path class="cls-2" d="M35.09,40.2c-.24,0-.48,.09-.66,.27-.37,.37-.37,.96,0,1.32l1.32,1.32-1.32,1.32c-.37,.37-.37,.96,0,1.32s.96,.37,1.32,0l1.32-1.32,1.32,1.32c.37,.37,.96,.37,1.32,0s.37-.96,0-1.32l-1.32-1.32,1.32-1.32c.37-.37,.37-.96,0-1.32s-.96-.37-1.32,0l-1.32,1.32-1.32-1.32c-.18-.18-.42-.27-.66-.27Z"/></g></svg>